<svg width="37" height="47" viewBox="0 0 37 47" fill="none" xmlns="http://www.w3.org/2000/svg">
<g id="&#240;&#159;&#166;&#134; icon &#34;clipboard&#34;">
<path id="Vector" d="M27.1751 5.8999H31.5751C32.742 5.8999 33.8612 6.36347 34.6864 7.18863C35.5115 8.01379 35.9751 9.13294 35.9751 10.2999V41.0998C35.9751 42.2668 35.5115 43.3859 34.6864 44.2111C33.8612 45.0363 32.742 45.4998 31.5751 45.4998H5.17514C4.00819 45.4998 2.88903 45.0363 2.06387 44.2111C1.23872 43.3859 0.775146 42.2668 0.775146 41.0998V10.2999C0.775146 9.13294 1.23872 8.01379 2.06387 7.18863C2.88903 6.36347 4.00819 5.8999 5.17514 5.8999H9.57513" stroke="#7BA0C4" stroke-width="1.5" stroke-linecap="round" stroke-linejoin="round"/>
<path id="Vector_2" d="M24.9752 1.5H11.7752C10.5602 1.5 9.5752 2.48497 9.5752 3.7V8.09999C9.5752 9.31501 10.5602 10.3 11.7752 10.3H24.9752C26.1902 10.3 27.1752 9.31501 27.1752 8.09999V3.7C27.1752 2.48497 26.1902 1.5 24.9752 1.5Z" stroke="#7BA0C4" stroke-width="1.5" stroke-linecap="round" stroke-linejoin="round"/>
</g>
</svg>
