<svg width="49" height="47" viewBox="0 0 49 47" fill="none" xmlns="http://www.w3.org/2000/svg">
<g id="&#240;&#159;&#166;&#134; icon &#34;key&#34;">
<path id="Vector" d="M45.361 1.5L40.7355 6.12548M40.7355 6.12548L47.6737 13.0637L39.5792 21.1583L32.6409 14.2201M40.7355 6.12548L32.6409 14.2201M23.1356 23.7254C24.3297 24.9037 25.279 26.3065 25.9288 27.8532C26.5786 29.3998 26.916 31.0597 26.9216 32.7373C26.9272 34.4149 26.6009 36.077 25.9615 37.628C25.3222 39.179 24.3823 40.5881 23.196 41.7744C22.0098 42.9606 20.6006 43.9005 19.0497 44.5399C17.4987 45.1793 15.8366 45.5055 14.159 45.4999C12.4814 45.4943 10.8215 45.1569 9.27485 44.5071C7.7282 43.8574 6.32535 42.9081 5.14709 41.7139C2.83003 39.3149 1.54792 36.1018 1.5769 32.7666C1.60588 29.4314 2.94363 26.2411 5.30204 23.8827C7.66044 21.5243 10.8508 20.1865 14.186 20.1575C17.5211 20.1286 20.7342 21.4107 23.1333 23.7277L23.1356 23.7254ZM23.1356 23.7254L32.6409 14.2201" stroke="#7BA0C4" stroke-width="1.5" stroke-linecap="round" stroke-linejoin="round"/>
</g>
</svg>
