<svg xmlns="http://www.w3.org/2000/svg" width="53" height="53" viewBox="0 0 53 53" fill="none">
  <path fill-rule="evenodd" clip-rule="evenodd" d="M35.9333 27.3C36.4667 26.9 36.4667 26.1 35.9333 25.7L22.85 15.8875C22.1908 15.3931 21.25 15.8635 21.25 16.6875V36.3125C21.25 37.1365 22.1908 37.6069 22.85 37.1125L35.9333 27.3ZM0.25 26.5C0.25 40.99 12.01 52.75 26.5 52.75C40.99 52.75 52.75 40.99 52.75 26.5C52.75 12.01 40.99 0.25 26.5 0.25C12.01 0.25 0.25 12.01 0.25 26.5ZM5.5 26.5C5.5 14.9237 14.9237 5.5 26.5 5.5C38.0762 5.5 47.5 14.9237 47.5 26.5C47.5 38.0762 38.0762 47.5 26.5 47.5C14.9237 47.5 5.5 38.0762 5.5 26.5Z" fill="#ABABAB"/>
</svg>