<?xml version="1.0" encoding="utf-8"?>
<!-- Generator: Adobe Illustrator 28.3.0, SVG Export Plug-In . SVG Version: 6.00 Build 0)  -->
<svg version="1.1" id="Layer_1" xmlns="http://www.w3.org/2000/svg" xmlns:xlink="http://www.w3.org/1999/xlink" x="0px" y="0px"
	 viewBox="0 0 40 30" style="enable-background:new 0 0 40 30;" xml:space="preserve">
<style type="text/css">
	.st0{fill-rule:evenodd;clip-rule:evenodd;fill:#C2D1D9;fill-opacity:0.7;}
</style>
<path id="Mask" class="st0" d="M36.3,2.3c0.3-0.7-0.2-1.4-0.9-1.4h-6.9l-5.7,11.3v16c0,0.6,0.4,1,1,1h15c0.6,0,1-0.4,1-1v-15
	c0-0.6-0.4-1-1-1h-7.5L36.3,2.3z M13.6,2.3c0.3-0.7-0.2-1.4-0.9-1.4H5.8L0.2,12.2v16c0,0.6,0.4,1,1,1h15c0.6,0,1-0.4,1-1v-15
	c0-0.6-0.4-1-1-1H8.7L13.6,2.3z"/>
</svg>
