<svg width="133" height="51" viewBox="0 0 133 51" fill="none" xmlns="http://www.w3.org/2000/svg">
<g id="Logo #8">
<path id="Combined Shape" fill-rule="evenodd" clip-rule="evenodd" d="M3.18157 39.719L20.3313 49.6204C21.9883 50.5771 24.0297 50.5771 25.6867 49.6204L42.8364 39.719C44.4934 38.7623 45.5141 36.9944 45.5141 35.0811V15.2783C45.5141 13.365 44.4934 11.597 42.8364 10.6404L25.6867 0.738983C24.0297 -0.217682 21.9883 -0.217682 20.3313 0.738983L3.18157 10.6404C1.5246 11.597 0.503906 13.365 0.503906 15.2783V35.0811C0.503906 36.9944 1.5246 38.7623 3.18157 39.719ZM26.9644 29.5566C23.2666 32.8983 23.7636 35.4444 26.1998 38.1401H26.1931C26.8847 38.9033 27.3096 39.9126 27.3096 41.0236C27.3096 43.3988 25.3842 45.3243 23.009 45.3243C20.6338 45.3243 18.7084 43.3988 18.7084 41.0236C18.7084 39.9126 19.1333 38.9033 19.8248 38.1401H19.8183C22.2545 35.4444 22.7515 32.8983 19.0536 29.5566H19.0636C17.8666 28.4768 17.1097 26.9186 17.1097 25.1796C17.1097 23.4407 17.8666 21.8825 19.0636 20.8028H19.0536C22.7515 17.461 22.2545 14.915 19.8183 12.2192H19.8248C19.1333 11.456 18.7084 10.4467 18.7084 9.3357C18.7084 6.96056 20.6338 5.0351 23.009 5.0351C25.3842 5.0351 27.3096 6.96056 27.3096 9.3357C27.3096 10.4467 26.8847 11.456 26.1931 12.2192H26.1998C23.7636 14.915 23.2665 17.461 26.9644 20.8028H26.9544C28.1514 21.8825 28.9083 23.4407 28.9083 25.1796C28.9083 26.9186 28.1514 28.4768 26.9544 29.5566H26.9644ZM14.4011 29.4715C13.1128 28.046 12.3759 26.6613 12.5057 25.1797C12.3759 23.6981 13.1128 22.3134 14.4011 20.8879H14.3945C15.086 20.1247 15.5109 19.1155 15.5109 18.0044C15.5109 15.6292 13.5855 13.7038 11.2103 13.7038C8.83516 13.7038 6.90975 15.6292 6.90975 18.0044C6.90975 19.1155 7.33471 20.1247 8.0262 20.8879H8.01961C9.30788 22.3134 10.0448 23.6981 9.91496 25.1797C10.0448 26.6613 9.30788 28.046 8.01961 29.4715H8.0262C7.33471 30.2347 6.90975 31.2439 6.90975 32.355C6.90975 34.7301 8.83516 36.6556 11.2103 36.6556C13.5855 36.6556 15.5109 34.7301 15.5109 32.355C15.5109 31.2439 15.086 30.2347 14.3945 29.4715H14.4011ZM36.1031 25.1797C35.9733 26.6613 36.7101 28.046 37.9984 29.4715H37.9918C38.6833 30.2347 39.1083 31.2439 39.1083 32.355C39.1083 34.7301 37.1828 36.6556 34.8077 36.6556C32.4325 36.6556 30.5071 34.7301 30.5071 32.355C30.5071 31.2439 30.932 30.2347 31.6235 29.4715H31.6169C32.9052 28.046 33.6421 26.6613 33.5123 25.1797C33.6421 23.6981 32.9052 22.3134 31.6169 20.8879H31.6235C30.932 20.1247 30.5071 19.1155 30.5071 18.0044C30.5071 15.6292 32.4325 13.7038 34.8077 13.7038C37.1828 13.7038 39.1083 15.6292 39.1083 18.0044C39.1083 19.1155 38.6833 20.1247 37.9918 20.8879H37.9984C36.7101 22.3134 35.9733 23.6981 36.1031 25.1797Z" fill="#C2D1D9"/>
<path id="Fill 7" fill-rule="evenodd" clip-rule="evenodd" d="M59.9219 15.8445V28.6332C59.9219 29.478 60.2504 29.9707 60.9309 29.9707C61.4002 29.9707 61.8226 29.8065 62.2449 29.5953L62.4092 32.2C61.846 32.4346 60.7901 32.7396 59.6403 32.7396C57.81 32.7396 56.6367 31.848 56.6367 29.4311V15.8445H59.9219Z" fill="#C2D1D9"/>
<path id="Fill 8" fill-rule="evenodd" clip-rule="evenodd" d="M76.1831 28.7271C76.1831 29.4311 76.3708 29.9708 77.0279 29.9708C77.4972 29.9708 77.8726 29.8065 78.2715 29.5953L78.4123 32.2C77.8022 32.4816 76.7932 32.7397 75.7372 32.7397C74.3528 32.7397 73.4846 32.1765 73.1326 30.9564C72.2879 31.9419 70.9269 32.7162 69.2373 32.7162C65.8114 32.7162 63.4883 30.0881 63.4883 26.404C63.4883 22.673 65.8114 20.0214 69.2373 20.0214C70.833 20.0214 72.0767 20.4673 72.8979 21.2885V20.2326H76.1831V28.7271ZM72.8979 23.9871C72.3348 23.4004 71.2554 22.8842 70.1525 22.8842C68.111 22.8842 66.8204 24.2921 66.8204 26.404C66.8204 28.469 68.1344 29.8769 70.1525 29.8769C71.2319 29.8769 72.2409 29.3841 72.8979 28.774V23.9871Z" fill="#C2D1D9"/>
<path id="Fill 9" fill-rule="evenodd" clip-rule="evenodd" d="M87.3755 32.7396C85.7095 32.7396 84.5127 32.2234 83.6914 31.4022V32.505H80.4062V15.8445H83.6914V21.265C84.5362 20.5142 85.8033 20.0214 87.3755 20.0214C90.8249 20.0214 93.148 22.6495 93.148 26.3571C93.148 30.0646 90.8249 32.7396 87.3755 32.7396ZM86.4604 22.8842C85.3575 22.8842 84.325 23.4004 83.6914 24.034V28.7506C84.2546 29.3137 85.3105 29.8769 86.4604 29.8769C88.4784 29.8769 89.7924 28.469 89.7924 26.3571C89.7924 24.2686 88.4784 22.8842 86.4604 22.8842Z" fill="#C2D1D9"/>
<path id="Fill 10" fill-rule="evenodd" clip-rule="evenodd" d="M101.336 19.9041C105.184 19.9041 107.953 22.673 107.953 26.404C107.953 30.0881 105.184 32.8335 101.336 32.8335C97.5345 32.8335 94.7656 30.0881 94.7656 26.404C94.7656 22.673 97.5345 19.9041 101.336 19.9041ZM101.336 29.8299C103.401 29.8299 104.785 28.3281 104.785 26.404C104.785 24.4329 103.401 22.9076 101.336 22.9076C99.3179 22.9076 97.9335 24.4329 97.9335 26.404C97.9335 28.3281 99.3179 29.8299 101.336 29.8299Z" fill="#C2D1D9"/>
<path id="Fill 11" fill-rule="evenodd" clip-rule="evenodd" d="M111.311 24.034C111.311 23.3066 111.147 22.7903 110.466 22.7903C109.974 22.7903 109.411 23.025 109.223 23.1423L109.082 20.5611C109.246 20.3968 110.466 20.0214 111.757 20.0214C113.165 20.0214 114.08 20.5846 114.432 21.8752C115.019 20.7254 115.91 20.0214 117.506 20.0214C118.656 20.0214 119.548 20.4438 119.712 20.7254L119.243 23.682C119.055 23.4239 118.116 23.0484 116.99 23.0484C115.418 23.0484 114.808 24.4094 114.596 25.8409V32.505H111.311V24.034Z" fill="#C2D1D9"/>
<path id="Fill 12" fill-rule="evenodd" clip-rule="evenodd" d="M132.381 31.1675C131.114 32.1999 129.307 32.8335 127.219 32.8335C122.596 32.8335 120.531 30.0177 120.531 26.404C120.531 22.7433 123.066 19.9041 127.008 19.9041C130.739 19.9041 132.499 22.1802 132.499 25.0195C132.499 25.7704 132.381 26.9437 132.241 27.413H123.91C124.215 29.126 125.318 30.0881 127.313 30.0881C128.862 30.0881 130.293 29.4545 131.138 28.8209L132.381 31.1675ZM129.354 24.4563C129.354 23.4708 128.603 22.626 126.937 22.626C125.177 22.626 124.239 23.682 124.004 24.8787H129.331C129.354 24.7614 129.354 24.5737 129.354 24.4563Z" fill="#C2D1D9"/>
</g>
</svg>
