<svg width="125" height="33" viewBox="0 0 125 33" fill="none" xmlns="http://www.w3.org/2000/svg">
<g id="Logo #6">
<path id="Fill 2" fill-rule="evenodd" clip-rule="evenodd" d="M32.1496 23.871C29.4199 29.0339 23.9929 32.5599 17.7579 32.5599H1.91016V23.871H32.1496Z" fill="#C2D1D9"/>
<path id="Fill 3" fill-rule="evenodd" clip-rule="evenodd" d="M32.1506 8.71358H0.511719V0.0247192H17.7593C23.9943 0.0247192 29.4209 3.55069 32.1506 8.71358Z" fill="#C2D1D9"/>
<path id="Fill 4" fill-rule="evenodd" clip-rule="evenodd" d="M33.8299 16.2925C33.8299 17.645 33.6528 18.9989 33.3021 20.3321H4.21094V12.2529H33.3021C33.6528 13.5857 33.8299 14.9395 33.8299 16.2925Z" fill="#C2D1D9"/>
<path id="Fill 5" fill-rule="evenodd" clip-rule="evenodd" d="M54.9549 7.71069V21.9268H52.6364L52.4737 20.5438C51.7009 21.7437 50.4602 22.1505 49.24 22.1505C46.291 22.1505 44.0742 20.1981 44.0742 16.9034C44.0742 13.446 46.2503 11.6562 49.179 11.6562C50.2365 11.6562 51.8839 12.2257 52.4737 13.2629V7.71069H54.9549ZM46.5554 16.9034C46.5554 18.6524 47.8163 19.8524 49.4027 19.8524C50.9687 19.8524 52.311 18.7134 52.311 16.9034C52.311 15.1543 50.9687 13.9747 49.4027 13.9747C47.8163 13.9747 46.5554 15.0933 46.5554 16.9034Z" fill="#C2D1D9"/>
<path id="Fill 6" fill-rule="evenodd" clip-rule="evenodd" d="M67.2207 11.9003L61.099 26.1163H58.3737L60.2448 21.7641L56.2383 11.9003H59.1262L60.6516 16.2322L61.6075 19.0591L62.6447 16.2932L64.475 11.9003H67.2207Z" fill="#C2D1D9"/>
<path id="Fill 7" fill-rule="evenodd" clip-rule="evenodd" d="M75.9046 21.9268V16.6797C75.9046 15.1543 75.0707 13.9951 73.4844 13.9951C71.959 13.9951 70.9218 15.2764 70.9218 16.8017V21.9268H68.4609V11.8799H70.6778L70.8404 13.2425C71.8573 12.246 72.8742 11.7375 74.1352 11.7375C76.4944 11.7375 78.3858 13.507 78.3858 16.6593V21.9268H75.9046Z" fill="#C2D1D9"/>
<path id="Fill 8" fill-rule="evenodd" clip-rule="evenodd" d="M88.4738 11.9003H90.8533V21.9268H88.5145L88.3925 20.4625C87.823 21.6421 86.257 22.2115 85.1385 22.2319C82.1691 22.2522 79.9727 20.4218 79.9727 16.9034C79.9727 13.446 82.2708 11.6359 85.1994 11.6562C86.5418 11.6562 87.823 12.2867 88.3925 13.2832L88.4738 11.9003ZM82.4539 16.9034C82.4539 18.8151 83.7758 19.954 85.4232 19.954C89.328 19.954 89.328 13.8731 85.4232 13.8731C83.7758 13.8731 82.4539 14.9916 82.4539 16.9034Z" fill="#C2D1D9"/>
<path id="Fill 9" fill-rule="evenodd" clip-rule="evenodd" d="M99.8114 21.9268V16.5576C99.8114 15.2357 99.1199 14.0357 97.7573 14.0357C96.415 14.0357 95.6218 15.2357 95.6218 16.5576V21.9268H93.1406V11.8799H95.4388L95.6218 13.1002C96.1506 12.0833 97.3098 11.7172 98.2657 11.7172C99.4657 11.7172 100.666 12.2053 101.235 13.5883C102.13 12.1647 103.289 11.7579 104.591 11.7579C107.438 11.7579 108.841 13.507 108.841 16.5169V21.9268H106.36V16.5169C106.36 15.195 105.811 14.0764 104.469 14.0764C103.126 14.0764 102.293 15.2357 102.293 16.5576V21.9268H99.8114Z" fill="#C2D1D9"/>
<path id="Fill 10" fill-rule="evenodd" clip-rule="evenodd" d="M113.874 9.07334C113.874 11.0054 110.945 11.0054 110.945 9.07334C110.945 7.14125 113.874 7.14125 113.874 9.07334ZM111.169 21.9268H113.65V11.8596H111.169V21.9268Z" fill="#C2D1D9"/>
<path id="Fill 11" fill-rule="evenodd" clip-rule="evenodd" d="M124.49 20.6455C123.33 21.7844 122.11 22.2319 120.625 22.2319C117.717 22.2319 115.297 20.4828 115.297 16.9237C115.297 13.3646 117.717 11.6155 120.625 11.6155C122.049 11.6155 123.147 12.0223 124.245 13.1002L122.679 14.7475C122.09 14.2188 121.357 13.9544 120.666 13.9544C118.998 13.9544 117.778 15.1746 117.778 16.9237C117.778 18.8355 119.08 19.8523 120.625 19.8523C121.418 19.8523 122.212 19.6286 122.822 19.0185L124.49 20.6455Z" fill="#C2D1D9"/>
</g>
</svg>
