<svg width="57" height="57" viewBox="0 0 57 57" fill="none" xmlns="http://www.w3.org/2000/svg">
<g id="Group">
<path id="Vector" d="M44.0737 24.8638C43.5962 24.5657 43.4774 23.9694 43.715 23.4338L45.7413 19.3205C46.1 18.6055 45.6225 17.7693 44.7864 17.7111L40.2584 17.4712C39.6622 17.4106 39.2453 16.9937 39.1847 16.3974L38.8866 11.8649C38.826 11.0892 37.9922 10.6118 37.2771 10.9099L33.1639 12.9362C32.6864 13.1738 32.0319 12.9968 31.7338 12.5775L29.1694 8.76241C28.7525 8.10556 27.7393 8.10556 27.32 8.76241L24.7556 12.5775C24.4575 13.055 23.8612 13.1738 23.3255 12.9362L19.3892 10.9122C18.6742 10.5535 17.838 11.031 17.7798 11.8066L17.4817 16.3974C17.4211 16.9936 17.0042 17.4105 16.4079 17.4711L11.8754 17.7692C11.0997 17.8298 10.6223 18.6636 10.9204 19.3787L12.9467 23.4919C13.1843 23.9694 13.0073 24.6239 12.588 24.922L8.77291 27.4864C8.11606 27.9033 8.11606 28.9165 8.77291 29.3358L12.588 31.9002C13.0655 32.1983 13.2449 32.7946 12.9467 33.3303L10.9227 37.2666C10.564 37.9816 11.0415 38.8178 11.8171 38.876L16.3497 39.1741C16.8854 39.2347 17.3628 39.6516 17.3628 40.1873L17.661 44.7199C17.7215 45.4955 18.5554 45.973 19.2704 45.6748L23.3837 43.6485C23.8611 43.4109 24.5156 43.5879 24.8137 44.0072L27.3781 47.8223C27.7951 48.4792 28.8082 48.4792 29.2275 47.8223L31.7919 44.0072C32.0901 43.5297 32.6863 43.4109 33.222 43.6485L37.3353 45.6748C38.0503 46.0335 38.8865 45.5561 38.9447 44.7804L39.2428 40.2479C39.3034 39.7122 39.7203 39.2347 40.256 39.2347L44.7886 38.9366C45.5642 38.876 46.0417 38.0422 45.7435 37.3272L43.7172 33.2139C43.4796 32.7364 43.6566 32.0819 44.0759 31.7838L47.891 29.2194C48.5479 28.8025 48.5479 27.7893 47.891 27.37L44.0737 24.8638Z" fill="black"/>
<path id="Vector_2" d="M56.6557 28.3228C56.6557 25.7583 55.4026 23.3733 53.2575 21.9433L52.9594 21.764L53.1387 21.4053C54.2706 19.0808 54.2125 16.3976 52.9011 14.1893C51.5898 11.9836 49.3235 10.5512 46.759 10.3742H46.4003V10.0155C46.221 7.45109 44.7909 5.12662 42.5852 3.87339C40.2584 2.50383 37.5752 2.44564 35.2506 3.57759L34.8919 3.75694L34.7125 3.4588C33.2825 1.25311 30.8974 0 28.3331 0C25.7688 0 23.3836 1.25311 21.9537 3.39822L21.7743 3.69636L21.4157 3.51701C19.0912 2.44559 16.408 2.50384 14.1418 3.81514C11.9361 5.12645 10.5037 7.39272 10.3267 9.95725V10.3159H9.96802C7.40361 10.4953 5.13733 11.9254 3.82591 14.1311C2.51461 16.3973 2.45635 19.0805 3.58833 21.4049L3.76768 21.7636L3.46955 21.9429C1.26385 23.373 0.0107422 25.758 0.0107422 28.3223C0.0107422 30.8866 1.26385 33.2718 3.40897 34.7018L3.7071 34.8811L3.52775 35.2398C2.45633 37.5643 2.51458 40.2474 3.82589 42.4534C5.13719 44.6591 7.40346 46.0915 9.96799 46.2685H10.3267V46.6272C10.506 49.1916 11.9361 51.5161 14.1418 52.7693C16.3475 54.0806 19.0913 54.1412 21.3578 53.0069L21.7165 52.8275L21.8958 53.1257C23.3259 55.2732 25.711 56.5239 28.2752 56.5239C30.8397 56.5239 33.2247 55.2708 34.6547 53.1257L34.834 52.8275L35.1927 53.0069C37.5172 54.1388 40.2004 54.0201 42.4087 52.7693C44.6144 51.458 46.0468 49.1917 46.2238 46.6272V46.2685H46.5825C49.1469 46.0892 51.4714 44.6591 52.7246 42.4534C54.0359 40.2477 54.0965 37.5039 52.9622 35.2374L52.7828 34.8787L53.081 34.6411C55.4031 33.2716 56.6562 30.8865 56.6562 28.3219L56.6557 28.3228ZM51.11 31.4834L48.0099 33.5703L49.6799 36.9104C50.2156 38.0423 50.2156 39.4142 49.5611 40.488C48.9043 41.6199 47.7723 42.3373 46.5192 42.3955L42.7623 42.6331L42.5247 46.39C42.4642 47.6431 41.7491 48.8357 40.6171 49.4319C39.4852 50.0888 38.1715 50.0888 37.0396 49.5507L33.5808 47.9995L31.4938 51.0996C30.0638 53.2471 26.5444 53.2471 25.1144 51.0996L23.0858 47.9995L19.7457 49.6695C18.6138 50.2052 17.2419 50.2052 16.1681 49.5507C15.0362 48.8939 14.3794 47.7619 14.2606 46.5088L14.023 42.7519L10.2661 42.5143C9.01296 42.4537 7.82043 41.7387 7.22417 40.6067C6.62791 39.4748 6.56733 38.1611 7.10538 37.0292L8.7754 33.6891L5.6753 31.6022C4.48278 30.7684 3.88651 29.5759 3.88651 28.3228C3.88651 27.0696 4.54336 25.8771 5.55653 25.1621L8.65662 23.0752L6.98661 19.7351C6.4509 18.6032 6.4509 17.2313 7.10539 16.1575C7.76224 15.0256 8.89418 14.3688 10.1473 14.25L13.9042 14.0124L14.1418 10.2555C14.2024 9.00237 14.9174 7.80984 16.0494 7.21358C17.1813 6.55673 18.495 6.55673 19.6269 7.09479L22.967 8.7648L25.0539 5.66471C26.484 3.51721 30.0034 3.51721 31.4333 5.66471L33.5202 8.7648L36.8603 7.09479C37.9922 6.49852 39.3641 6.55908 40.4379 7.21358C41.5698 7.87042 42.2872 9.00237 42.3454 10.2555L42.583 14.0124L46.3399 14.25C47.593 14.3105 48.7856 15.0256 49.3818 16.1575C50.0387 17.2895 50.0387 18.6032 49.5006 19.7351L48.01 23.0752L51.11 25.1621C52.1838 25.8771 52.7801 27.0696 52.7801 28.3228C52.7801 29.5759 52.1837 30.7684 51.11 31.4834Z" fill="black"/>
</g>
</svg>
