<svg width="191" height="61" viewBox="0 0 191 61" fill="none" xmlns="http://www.w3.org/2000/svg">
<g clip-path="url(#clip0_0_2509)">
<path d="M30.2253 28.1623C29.9303 27.9781 29.8569 27.6097 30.0037 27.2787L31.2557 24.7372C31.4774 24.2954 31.1823 23.7787 30.6657 23.7427L27.868 23.5945C27.4996 23.5571 27.242 23.2995 27.2045 22.9311L27.0203 20.1305C26.9829 19.6513 26.4677 19.3562 26.0259 19.5404L23.4844 20.7925C23.1894 20.9393 22.785 20.8299 22.6008 20.5709L21.0163 18.2136C20.7587 17.8077 20.1327 17.8077 19.8736 18.2136L18.2891 20.5709C18.1049 20.8659 17.7365 20.9393 17.4055 20.7925L14.9734 19.5419C14.5315 19.3203 14.0149 19.6153 13.9789 20.0945L13.7947 22.931C13.7573 23.2995 13.4997 23.5571 13.1313 23.5945L10.3307 23.7787C9.85146 23.8161 9.55643 24.3313 9.74064 24.7731L10.9927 27.3146C11.1395 27.6096 11.0301 28.014 10.771 28.1982L8.41376 29.7827C8.00791 30.0403 8.00791 30.6663 8.41376 30.9254L10.771 32.5099C11.0661 32.6941 11.1769 33.0625 10.9927 33.3935L9.74208 35.8257C9.52045 36.2675 9.81548 36.7841 10.2947 36.8201L13.0953 37.0043C13.4263 37.0417 13.7213 37.2993 13.7213 37.6303L13.9055 40.4309C13.9429 40.9101 14.4581 41.2052 14.8999 41.0209L17.4414 39.7689C17.7364 39.6221 18.1408 39.7315 18.325 39.9905L19.9095 42.3478C20.1671 42.7537 20.7931 42.7537 21.0522 42.3478L22.6367 39.9905C22.8209 39.6955 23.1893 39.6221 23.5203 39.7689L26.0618 41.0209C26.5036 41.2426 27.0203 40.9476 27.0563 40.4683L27.2405 37.6678C27.2779 37.3368 27.5355 37.0417 27.8665 37.0417L30.667 36.8575C31.1463 36.8201 31.4413 36.3049 31.2571 35.8631L30.0051 33.3216C29.8583 33.0266 29.9677 32.6222 30.2267 32.438L32.584 30.8535C32.9898 30.5959 32.9898 29.9699 32.584 29.7108L30.2253 28.1623Z" fill="black"/>
<path d="M37.9997 30.2995C37.9997 28.715 37.2254 27.2413 35.9 26.3578L35.7158 26.247L35.8266 26.0254C36.526 24.5891 36.49 22.9312 35.6798 21.5668C34.8696 20.2039 33.4693 19.3188 31.8847 19.2095H31.6631V18.9879C31.5523 17.4034 30.6687 15.9671 29.3058 15.1928C27.8681 14.3466 26.2103 14.3106 24.7739 15.01L24.5523 15.1208L24.4415 14.9366C23.5579 13.5738 22.0842 12.7995 20.4998 12.7995C18.9153 12.7995 17.4416 13.5738 16.5581 14.8992L16.4473 15.0834L16.2256 14.9726C14.7894 14.3106 13.1315 14.3466 11.7313 15.1568C10.3684 15.967 9.48335 17.3673 9.37401 18.9519V19.1735H9.15238C7.56789 19.2843 6.16761 20.1679 5.35731 21.5308C4.54708 22.9311 4.51109 24.5889 5.21052 26.0251L5.32133 26.2467L5.13712 26.3575C3.77427 27.2412 3 28.7148 3 30.2993C3 31.8837 3.77427 33.3574 5.09969 34.241L5.2839 34.3518L5.17308 34.5734C4.51107 36.0096 4.54707 37.6675 5.35729 39.0305C6.16752 40.3934 7.5678 41.2785 9.15237 41.3878H9.37399V41.6094C9.48481 43.1939 10.3684 44.6302 11.7313 45.4045C13.0941 46.2147 14.7894 46.2522 16.1899 45.5513L16.4115 45.4405L16.5223 45.6247C17.4059 46.9516 18.8796 47.7244 20.464 47.7244C22.0485 47.7244 23.5222 46.9501 24.4057 45.6247L24.5165 45.4405L24.7382 45.5513C26.1744 46.2507 27.8323 46.1773 29.1968 45.4045C30.5596 44.5943 31.4447 43.194 31.554 41.6094V41.3878H31.7757C33.3602 41.277 34.7964 40.3934 35.5707 39.0305C36.381 37.6677 36.4184 35.9724 35.7175 34.5719L35.6067 34.3503L35.7909 34.2035C37.2257 33.3573 38 31.8836 38 30.299L37.9997 30.2995ZM34.5731 32.2524L32.6576 33.5419L33.6895 35.6056C34.0205 36.305 34.0205 37.1527 33.6161 37.8161C33.2102 38.5155 32.5108 38.9588 31.7366 38.9948L29.4152 39.1416L29.2684 41.4629C29.231 42.2372 28.7892 42.974 28.0898 43.3424C27.3904 43.7483 26.5787 43.7483 25.8793 43.4158L23.7422 42.4573L22.4527 44.3728C21.5691 45.6997 19.3946 45.6997 18.511 44.3728L17.2575 42.4573L15.1938 43.4892C14.4944 43.8202 13.6468 43.8202 12.9833 43.4158C12.2839 43.0099 11.878 42.3105 11.8047 41.5363L11.6579 39.2149L9.33654 39.0682C8.56227 39.0307 7.82544 38.5889 7.45702 37.8895C7.0886 37.1901 7.05117 36.3784 7.38362 35.679L8.41549 33.6153L6.50001 32.3258C5.76317 31.8106 5.39475 31.0738 5.39475 30.2995C5.39475 29.5252 5.8006 28.7884 6.42662 28.3466L8.3421 27.0571L7.31023 24.9934C6.97923 24.294 6.97923 23.4463 7.38363 22.7829C7.78948 22.0835 8.48888 21.6776 9.26315 21.6043L11.5845 21.4575L11.7313 19.1361C11.7687 18.3619 12.2105 17.625 12.9099 17.2566C13.6093 16.8508 14.421 16.8508 15.1204 17.1832L17.1842 18.2151L18.4736 16.2996C19.3572 14.9727 21.5318 14.9727 22.4153 16.2996L23.7048 18.2151L25.7685 17.1832C26.4679 16.8148 27.3156 16.8522 27.979 17.2566C28.6784 17.6625 29.1217 18.3619 29.1577 19.1361L29.3045 21.4575L31.6258 21.6043C32.4001 21.6417 33.1369 22.0835 33.5053 22.7829C33.9112 23.4823 33.9112 24.294 33.5787 24.9934L32.6577 27.0571L34.5731 28.3466C35.2366 28.7884 35.605 29.5252 35.605 30.2995C35.605 31.0738 35.2366 31.8106 34.5731 32.2524Z" fill="black"/>
<path d="M60.334 27.572H56.99C56.77 26.01 55.274 24.822 53.558 24.822C50.456 24.822 49.29 27.462 49.29 30.212C49.29 32.83 50.456 35.47 53.558 35.47C55.67 35.47 56.858 34.018 57.122 31.95H60.466C60.114 35.866 57.408 38.374 53.558 38.374C48.696 38.374 45.836 34.744 45.836 30.212C45.836 25.548 48.696 21.918 53.558 21.918C57.012 21.918 59.916 23.942 60.334 27.572ZM62.1426 32.324C62.1426 28.694 64.4526 26.318 68.0166 26.318C71.6026 26.318 73.9126 28.694 73.9126 32.324C73.9126 35.932 71.6026 38.308 68.0166 38.308C64.4526 38.308 62.1426 35.932 62.1426 32.324ZM65.2666 32.324C65.2666 34.128 65.9046 35.954 68.0166 35.954C70.1506 35.954 70.7886 34.128 70.7886 32.324C70.7886 30.498 70.1506 28.672 68.0166 28.672C65.9046 28.672 65.2666 30.498 65.2666 32.324ZM76.0319 38V26.626H78.9799V28.166H79.0239C79.8379 27 81.0259 26.318 82.4999 26.318C83.9299 26.318 85.2059 26.846 85.8219 28.21C86.4819 27.22 87.6699 26.318 89.2539 26.318C91.6739 26.318 93.4119 27.44 93.4119 30.388V38H90.2879V31.554C90.2879 30.036 90.1559 28.782 88.3739 28.782C86.6139 28.782 86.2839 30.234 86.2839 31.664V38H83.1599V31.62C83.1599 30.3 83.2479 28.782 81.2679 28.782C80.6519 28.782 79.1559 29.178 79.1559 31.4V38H76.0319ZM95.8814 42.004V26.626H98.8514V28.078H98.8954C99.6434 26.868 100.875 26.318 102.283 26.318C105.847 26.318 107.453 29.2 107.453 32.434C107.453 35.47 105.781 38.308 102.459 38.308C101.095 38.308 99.7974 37.714 99.0494 36.592H99.0054V42.004H95.8814ZM101.623 35.954C103.669 35.954 104.329 34.194 104.329 32.346C104.329 30.542 103.603 28.672 101.601 28.672C99.5554 28.672 98.8954 30.498 98.8954 32.346C98.8954 34.194 99.5994 35.954 101.623 35.954ZM116.415 33.6V32.434C115.887 32.896 114.787 32.918 113.819 33.094C112.851 33.292 111.971 33.622 111.971 34.766C111.971 35.932 112.873 36.218 113.885 36.218C116.327 36.218 116.415 34.282 116.415 33.6ZM112.323 30.124H109.199C109.375 27.198 111.993 26.318 114.545 26.318C116.811 26.318 119.539 26.824 119.539 29.552V35.47C119.539 36.504 119.649 37.538 119.935 38H116.767C116.657 37.648 116.569 37.274 116.547 36.9C115.557 37.934 114.105 38.308 112.719 38.308C110.563 38.308 108.847 37.23 108.847 34.898C108.847 32.324 110.783 31.708 112.719 31.444C114.633 31.158 116.415 31.224 116.415 29.948C116.415 28.606 115.491 28.408 114.391 28.408C113.203 28.408 112.433 28.892 112.323 30.124ZM121.963 38V26.626H124.933V28.21H124.999C125.791 26.934 127.155 26.318 128.475 26.318C131.797 26.318 132.633 28.188 132.633 31.004V38H129.509V31.576C129.509 29.706 128.959 28.782 127.507 28.782C125.813 28.782 125.087 29.728 125.087 32.038V38H121.963ZM145.366 26.626L140.614 39.43C139.932 41.256 138.854 42.004 136.698 42.004C136.06 42.004 135.422 41.96 134.784 41.894V39.32C135.378 39.364 135.994 39.452 136.61 39.43C137.688 39.32 138.04 38.198 137.688 37.296L133.684 26.626H137.028L139.602 34.414H139.646L142.132 26.626H145.366ZM166.682 27.572H163.338C163.118 26.01 161.622 24.822 159.906 24.822C156.804 24.822 155.638 27.462 155.638 30.212C155.638 32.83 156.804 35.47 159.906 35.47C162.018 35.47 163.206 34.018 163.47 31.95H166.814C166.462 35.866 163.756 38.374 159.906 38.374C155.044 38.374 152.184 34.744 152.184 30.212C152.184 25.548 155.044 21.918 159.906 21.918C163.36 21.918 166.264 23.942 166.682 27.572ZM168.49 32.324C168.49 28.694 170.8 26.318 174.364 26.318C177.95 26.318 180.26 28.694 180.26 32.324C180.26 35.932 177.95 38.308 174.364 38.308C170.8 38.308 168.49 35.932 168.49 32.324ZM171.614 32.324C171.614 34.128 172.252 35.954 174.364 35.954C176.498 35.954 177.136 34.128 177.136 32.324C177.136 30.498 176.498 28.672 174.364 28.672C172.252 28.672 171.614 30.498 171.614 32.324ZM182.424 38V34.612H185.878V38H182.424Z" fill="black"/>
</g>
<defs>
<clipPath id="clip0_0_2509">
<rect width="191" height="61" fill="white"/>
</clipPath>
</defs>
</svg>
