<svg width="125" height="34" viewBox="0 0 125 34" fill="none" xmlns="http://www.w3.org/2000/svg">
<g id="Logo #7">
<path id="Fill 2" fill-rule="evenodd" clip-rule="evenodd" d="M1.40816 30.3248C2.59431 32.3811 4.71972 33.6088 7.09361 33.6088H7.09365C9.78573 33.6088 12.2954 32.1611 13.6433 29.8307L16.7968 24.3785H1.09472C0.234665 26.2948 0.339088 28.4714 1.40816 30.3248Z" fill="#C2D1D9"/>
<path id="Fill 3" fill-rule="evenodd" clip-rule="evenodd" d="M27.7543 29.8256C29.1016 32.1591 31.6123 33.6088 34.3069 33.6088H34.3084C36.6825 33.6088 38.8085 32.3813 39.9956 30.3252C41.0654 28.4724 41.171 26.2954 40.3126 24.3785H24.6094L27.7543 29.8256Z" fill="#C2D1D9"/>
<path id="Fill 4" fill-rule="evenodd" clip-rule="evenodd" d="M38.92 21.8973L33.2812 12.1334H8.12715L2.48828 21.8973H38.92Z" fill="#C2D1D9"/>
<path id="Fill 5" fill-rule="evenodd" clip-rule="evenodd" d="M21.0074 0.0247803H20.4081C17.1471 0.0247803 14.1082 1.77898 12.4773 4.60277L9.55859 9.65209H31.848L28.9375 4.60177C27.3072 1.77898 24.2683 0.0247803 21.0074 0.0247803Z" fill="#C2D1D9"/>
<path id="Fill 6" fill-rule="evenodd" clip-rule="evenodd" d="M51.1328 20.5804C51.1328 18.629 51.9965 17.1895 53.628 16.5497C54.3637 16.2618 55.6433 16.1019 57.4667 16.1019H58.4263C59.2261 16.1019 59.9298 16.1338 60.5696 16.1978V14.3744C60.5696 12.0393 59.386 11.2395 56.6989 11.2395C55.5793 11.2395 54.4917 11.3994 53.404 11.7193C52.9242 11.8473 52.6683 11.8473 52.5723 11.4634L52.4124 10.7916C52.2844 10.4078 52.3804 10.1839 52.7643 10.0879C54.1398 9.67204 55.5153 9.44812 56.8589 9.44812C60.9535 9.44812 62.6489 10.8236 62.6489 14.1505V25.0908C62.6489 25.3467 62.5849 25.4107 62.297 25.4107H61.2414C60.9535 25.4107 60.8255 25.3148 60.8255 25.0908L60.7615 24.0032H60.6975C59.9938 25.1228 58.8742 25.6986 57.3067 25.6986H55.7073C54.2997 25.6986 53.0202 25.2828 52.2844 24.547C51.5167 23.7793 51.1328 22.7876 51.1328 21.54V20.5804ZM53.2441 21.2841C53.2441 22.2758 53.468 22.9475 53.9159 23.3634C54.3317 23.7473 54.9715 23.9392 55.8672 23.9392H57.1788C59.322 23.9392 60.5696 22.7876 60.5696 20.6124V17.9572C60.0578 17.8933 59.418 17.8613 58.6502 17.8613H56.8589C55.5153 17.8613 54.5876 18.0852 54.0438 18.501C53.5 18.9169 53.2441 19.6207 53.2441 20.6124V21.2841Z" fill="#C2D1D9"/>
<path id="Fill 7" fill-rule="evenodd" clip-rule="evenodd" d="M67 4.10594C67 3.88202 67.1279 3.75403 67.3838 3.75403H68.6954C68.9513 3.75403 69.0793 3.88202 69.0793 4.10594V21.2201C69.0793 22.3717 69.1113 22.7556 69.3671 23.2354C69.5271 23.4594 69.911 23.5873 70.5188 23.5873H71.3825C71.5744 23.5873 71.7664 23.6193 71.7664 23.9392V25.0268C71.7664 25.2828 71.6704 25.4107 71.4465 25.4107H70.2309C69.0793 25.4107 68.2475 25.1548 67.7677 24.675C67.2559 24.1311 67 23.1395 67 21.732V4.10594Z" fill="#C2D1D9"/>
<path id="Fill 8" fill-rule="evenodd" clip-rule="evenodd" d="M74.9023 5.51347C74.9023 4.48981 75.4782 4.00995 76.3739 4.00995H76.5018C77.4295 4.00995 77.9093 4.52178 77.9093 5.51347V5.70538C77.9093 6.72904 77.3656 7.24086 76.5018 7.24086H76.3739C75.3182 7.24086 74.9023 6.76104 74.9023 5.70538V5.51347ZM75.3822 10.0879C75.3822 9.86396 75.5102 9.73604 75.7661 9.73604H77.0776C77.3336 9.73604 77.4615 9.86396 77.4615 10.0879V25.1548C77.4615 25.3148 77.3656 25.4107 77.1736 25.4107H75.6381C75.4782 25.4107 75.3822 25.3148 75.3822 25.1548V10.0879Z" fill="#C2D1D9"/>
<path id="Fill 9" fill-rule="evenodd" clip-rule="evenodd" d="M81.5234 16.9975C81.5234 11.3355 83.4108 9.44812 87.6654 9.44812C89.7127 9.44812 91.1522 10.0879 92.0159 11.3675H92.0798L92.2398 10.1199C92.2718 9.86395 92.4317 9.73603 92.7196 9.73603H93.4873C93.8392 9.73603 93.9352 9.79999 93.9352 10.1519V30.7209C93.9352 30.9448 93.8392 31.0728 93.6153 31.0728H92.1758C91.9519 31.0728 91.8559 30.9448 91.8559 30.7209V24.0032H91.792C90.8962 25.1228 89.4887 25.6986 87.5694 25.6986C83.2188 25.6986 81.5234 23.6193 81.5234 18.501V16.9975ZM83.6347 18.3411C83.6347 20.5164 83.9866 22.0198 84.6904 22.8196C85.3621 23.5873 86.2578 23.9072 87.8253 23.9072C90.3844 23.9072 91.8559 22.5957 91.8559 20.0685V15.3341C91.8559 12.743 90.3844 11.2395 87.6974 11.2395C86.2898 11.2395 85.4581 11.5274 84.8183 12.1992C84.0186 13.0629 83.6347 14.7583 83.6347 17.2854V18.3411Z" fill="#C2D1D9"/>
<path id="Fill 10" fill-rule="evenodd" clip-rule="evenodd" d="M98.0938 10.2478C98.0938 9.95994 98.2857 9.73602 98.5416 9.73602H99.7252C100.013 9.73602 100.173 9.89594 100.173 10.1839V20.6443C100.173 21.9239 100.397 22.6277 101.005 23.1395C101.549 23.6513 102.508 23.9072 103.884 23.9072C105.195 23.9072 106.187 23.6193 106.827 23.0115C107.371 22.4997 107.563 21.9239 107.563 20.6443V10.1519C107.563 9.89594 107.722 9.73602 107.946 9.73602H109.29C109.514 9.73602 109.642 9.86395 109.642 10.1519V20.9002C109.642 22.5317 109.162 23.7473 108.234 24.547C107.307 25.3467 106.059 25.6986 103.884 25.6986C101.9 25.6986 100.461 25.3147 99.5332 24.547C98.5735 23.7473 98.0938 22.5317 98.0938 20.9002V10.2478Z" fill="#C2D1D9"/>
<path id="Fill 11" fill-rule="evenodd" clip-rule="evenodd" d="M112.969 20.5804C112.969 18.629 113.832 17.1895 115.464 16.5497C116.2 16.2618 117.479 16.1019 119.303 16.1019H120.262C121.062 16.1019 121.766 16.1338 122.406 16.1978V14.3744C122.406 12.0393 121.222 11.2395 118.535 11.2395C117.415 11.2395 116.328 11.3994 115.24 11.7193C114.76 11.8473 114.504 11.8473 114.408 11.4634L114.248 10.7916C114.12 10.4078 114.216 10.1839 114.6 10.0879C115.976 9.67204 117.351 9.44812 118.695 9.44812C122.789 9.44812 124.485 10.8236 124.485 14.1505V25.0908C124.485 25.3467 124.421 25.4107 124.133 25.4107H123.077C122.789 25.4107 122.661 25.3148 122.661 25.0908L122.597 24.0032H122.533C121.83 25.1228 120.71 25.6986 119.143 25.6986H117.543C116.136 25.6986 114.856 25.2828 114.12 24.547C113.353 23.7793 112.969 22.7876 112.969 21.54V20.5804ZM115.08 21.2841C115.08 22.2758 115.304 22.9475 115.752 23.3634C116.168 23.7473 116.807 23.9392 117.703 23.9392H119.015C121.158 23.9392 122.406 22.7876 122.406 20.6124V17.9572C121.894 17.8933 121.254 17.8613 120.486 17.8613H118.695C117.351 17.8613 116.424 18.0852 115.88 18.501C115.336 18.9169 115.08 19.6207 115.08 20.6124V21.2841Z" fill="#C2D1D9"/>
</g>
</svg>
