<svg width="757" height="501" viewBox="0 0 757 501" fill="none" xmlns="http://www.w3.org/2000/svg">
<path fill-rule="evenodd" clip-rule="evenodd" d="M297.528 156C340.541 156 375.528 121.013 375.528 78.014C375.528 34.9873 340.541 0 297.528 0C254.515 0 219.528 34.9873 219.528 78C219.528 121.013 254.515 156 297.528 156ZM297.528 28.0122C325.092 28.0122 347.516 50.45 347.516 78C347.516 105.55 325.092 127.988 297.528 127.988C269.964 127.988 247.54 105.564 247.54 78.014C247.54 50.464 269.964 28.0122 297.528 28.0122ZM12.1766 531.652C9.52468 533.983 6.23074 535.128 2.96473 535.128C-0.901457 535.128 -4.75368 533.536 -7.51724 530.396C-12.6117 524.604 -12.0534 515.783 -6.26108 510.689L414.779 124.444C420.306 119.587 428.653 119.852 433.873 125.058L500.072 191.256L636.771 41.54C639.269 38.8044 642.758 37.1715 646.457 37.004C650.128 36.9202 653.771 38.1624 656.506 40.6607L823.994 194.187C829.689 199.393 830.066 208.228 824.86 213.908C819.654 219.589 810.819 219.98 805.138 214.774L647.964 70.6961L519.822 211.019L586.915 278.11C592.372 283.568 592.372 292.388 586.915 297.846C581.458 303.303 572.637 303.303 567.179 297.846L423.391 154.075L12.1766 531.652Z" fill="#E7E8EB"/>
</svg>
