<svg width="135" height="110" viewBox="0 0 135 110" fill="none" xmlns="http://www.w3.org/2000/svg">
<g id="icon">
<rect id="background copy" x="0.5" width="134" height="110" rx="4" fill="transparent"/>
<path id="Border Copy" fill-rule="evenodd" clip-rule="evenodd" d="M126.618 0H8.38235C4.02905 0 0.5 3.51776 0.5 7.85714V102.143C0.5 106.482 4.02905 110 8.38235 110H126.618C130.971 110 134.5 106.482 134.5 102.143V7.85714C134.5 3.51776 130.971 0 126.618 0ZM8.38235 102.143V7.85714H126.618V102.143H8.38235Z" fill="#C2D1D9"/>
<path id="Oval 2" fill-rule="evenodd" clip-rule="evenodd" d="M22.1763 32.4107C22.1763 40.5471 28.7932 47.1429 36.9557 47.1429C45.1181 47.1429 51.7351 40.5471 51.7351 32.4107C51.7351 24.2744 45.1181 17.6786 36.9557 17.6786C28.7932 17.6786 22.1763 24.2744 22.1763 32.4107ZM43.8527 32.4107C43.8527 36.2077 40.7648 39.2857 36.9557 39.2857C33.1465 39.2857 30.0586 36.2077 30.0586 32.4107C30.0586 28.6138 33.1465 25.5357 36.9557 25.5357C40.7648 25.5357 43.8527 28.6138 43.8527 32.4107Z" fill="#C2D1D9"/>
<path id="Path 4" d="M28.8922 93.1471C27.3464 94.6747 24.8511 94.6639 23.3186 93.1231C21.7861 91.5823 21.7969 89.0949 23.3427 87.5673L55.7576 55.5342L74.0275 71.3746C75.6698 72.7985 75.8432 75.2799 74.4147 76.917C72.9862 78.554 70.4968 78.7268 68.8545 77.3029L56.1082 66.2516L28.8922 93.1471Z" fill="#C2D1D9"/>
<path id="Path 4_2" d="M58.4635 93.1349C56.9244 94.6692 54.429 94.6693 52.8898 93.1352C51.3506 91.6011 51.3505 89.1136 52.8896 87.5794L104.761 35.8695L133.158 60.7067C134.794 62.1377 134.957 64.6199 133.521 66.2507C132.086 67.8816 129.596 68.0437 127.96 66.6127L105.113 46.6305L58.4635 93.1349Z" fill="#C2D1D9"/>
</g>
</svg>
