<svg width="337" height="264" viewBox="0 0 337 264" fill="none" xmlns="http://www.w3.org/2000/svg">
<rect x="-55.1445" y="0.5" width="465.673" height="302" fill="#F2F5F7"/>
<path opacity="0.5" fill-rule="evenodd" clip-rule="evenodd" d="M315.081 294.305L346.25 298.27L345.047 302.896H350.689L364.285 252.487L367.429 302.896H372.978L371.961 285.893L386.204 285.653L387.684 302.896H390.458L388.979 285.593L410.343 285.232V281.627L392.771 281.928L391.476 275.859L410.436 276.22V274.417L391.106 274.057L388.516 262.22L399.985 254.049L410.528 258.375V256.212L401.927 252.667L410.528 246.479V243.775L387.961 259.937C386.759 255.431 383.799 244.075 382.505 239.269L410.528 242.393V238.728L396.563 237.166L399.892 223.647C403.592 224.128 407.199 224.609 410.528 225.089V221.364L402.574 220.283L410.528 213.674V207.785L396.47 219.441L378.25 216.978L386.019 181.589L410.528 184.473V178.345L407.939 178.044L410.528 166.629V141.694L407.661 154.312L381.58 150.226C382.875 145.78 386.389 133.944 387.684 129.438L410.528 132.201V128.536L395.823 126.734L407.384 85.7574L410.528 86.1179V79.9895L402.944 79.0882L404.979 69.8355L410.528 69.0544V67.1918L405.349 67.9128L409.881 47.4847L410.528 47.5448V1.94199L408.863 9.51241L391.383 10.2334L390.551 0.5H387.776L388.609 10.3536L373.811 10.9544L373.163 0.5H367.614L368.262 11.1947L347.729 12.0359L350.874 0.560083H345.232L342.18 11.7355L311.197 6.38811L312.862 0.560083H303.428L300.284 11.6754L279.011 14.0186L276.422 0.560083H270.78L273.462 14.6194L252.653 16.9026L243.681 5.06629C248.953 4.04488 257.924 2.36256 267.543 0.560083H247.566L241.184 1.76174L240.259 0.560083H229.901L232.121 3.44405C228.883 4.04488 224.537 4.82596 220.19 5.60703C219.542 4.40538 218.525 2.6029 217.508 0.560083H214.548L217.508 6.08769C212.328 7.04902 207.704 7.89018 205.854 8.19059L192.444 5.48687L193.276 0.560083H190.501L189.761 4.88604L172.559 1.40124L173.021 0.5H167.102L164.882 4.46546L150.177 0.5H144.998L140.466 8.13051L119.379 3.38397C120.211 2.42265 121.043 1.46132 121.876 0.5H115.402C112.257 3.9848 108.835 7.34943 105.228 10.3536L102.731 0.5H97.0893L97.8292 3.26381L83.7711 8.67125L76.3722 0.5H73.1351L90.5227 19.6664C90.1528 19.8466 89.6903 20.0269 89.3204 20.2071C83.7711 22.5504 76.5572 24.2928 68.2333 25.6146L71.0079 0.5H68.2333L65.3662 26.0352C62.3141 26.4557 59.1696 26.8162 55.9325 27.1767L52.8804 0.560083H47.2387L48.2561 9.57249L14.6833 6.92885L14.4058 0.560083H8.85656L9.04154 6.50827L1.27262 5.90745L-7.05122 0.620165H-11.0282L-3.25925 5.54695L-31.5603 3.32389L-31.0054 0.620165H-33.78L-34.2424 3.14364L-45.4334 2.2424L-45.0634 0.620165H-54.4971L-54.8671 2.12223V47.725L-30.7279 50.609L-26.566 63.5869L-54.8671 67.4322V69.2947L-46.3583 68.1532L-43.6761 81.5516L-54.8671 80.1697V86.2981L-42.5663 87.8002L-51.9075 129.077L-54.8671 128.717V132.382L-52.7399 132.622L-54.8671 141.875V166.809L-47.2831 133.283L-20.9243 136.467L-27.8608 181.649L-54.7746 178.525V184.654L-30.0805 187.538L-54.7746 208.026V213.914L-30.2655 193.606L-37.0171 224.008L-54.8671 221.604V225.33C-47.6531 226.291 -41.6414 227.132 -37.8494 227.613L-40.7165 240.531L-54.8671 238.968V242.633L-53.2023 242.814L-54.8671 244.015V246.719L-49.9653 243.174L-41.5489 244.135L-45.1559 260.538L-54.9596 256.513V258.676L-45.6184 262.521L-48.3005 274.838L-54.8671 274.718V276.52L-48.6704 276.64L-49.7803 281.807L-54.8671 281.928V285.532L-50.6127 285.472L-54.4971 303.257H-45.0634L-41.179 285.773L-30.543 286.674L-33.6875 303.197H-30.9129L-28.6932 291.841L-10.9357 303.197H-6.95873L-28.3233 289.618L-27.7683 286.914L8.39413 290.039L8.85656 303.197H14.4058L13.9434 290.519L46.1289 293.283L47.2387 303.197H52.8804L52.3255 298.09L68.9732 296.227L68.2333 303.197H71.0079L71.2854 301.094L73.2276 303.197H76.4647L71.6553 297.91L71.8403 295.927L94.6846 293.403L97.1818 303.197H102.823L94.9621 272.495L134.732 274.477C130.385 283.129 124.003 293.764 115.587 303.197H122.061C125.483 299.171 128.535 295.026 131.31 290.94L149.807 295.506L145.183 303.197H150.362L148.512 302.716L157.761 287.275L174.778 289.858L167.287 303.197H173.206L187.357 277.902L195.033 277.241L190.594 303.197H193.368L195.126 292.803L207.796 290.579L214.64 303.197H217.6C215.01 298.39 211.773 292.382 210.479 290.099L218.987 288.597L229.993 303.197H240.352L235.635 296.888L272.722 289.438L270.688 298.871L247.751 303.197H267.728C268.745 303.017 269.763 302.836 270.873 302.596L270.965 303.197H276.607L276.329 301.575C287.705 299.412 298.989 297.309 305.74 296.047L303.706 303.197H313.139L315.081 294.305V294.305ZM310.087 278.623L280.861 276.039L283.821 262.641L313.694 265.946L310.087 278.623V278.623ZM247.658 254.95L249.693 247.62L280.676 251.405L279.104 258.435L247.658 254.95V254.95ZM278.364 262.04L277.069 267.748L256.537 265.825L258.572 259.877L278.364 262.04V262.04ZM174.686 254.83L160.905 254.59L163.033 246.899L174.686 250.564C174.501 251.285 174.409 251.946 174.409 252.667C174.409 253.388 174.501 254.109 174.686 254.83V254.83ZM178.94 260.959C179.68 261.559 180.513 262.1 181.345 262.581L170.894 271.593L160.998 260.658L178.94 260.959V260.959ZM178.293 244.917L151.749 236.625L180.605 229.776L184.952 241.071C182.27 242.033 180.05 243.354 178.293 244.917V244.917ZM-5.66391 225.75L-2.24189 220.763L40.1172 214.214L34.0131 227.973L-5.66391 225.75V225.75ZM32.7182 231.518L29.8511 240.951L19.4926 239.269L20.2325 230.857L32.7182 231.518V231.518ZM-26.381 31.3825C-16.9473 31.8632 -6.03386 32.2237 5.43454 32.3438L5.34206 34.1463L-27.7683 40.8155L-26.381 31.3825V31.3825ZM-37.757 27.0566L-34.6124 15.5808L-4.18412 18.0442C-4.46158 20.1471 -5.29397 25.6146 -5.7564 28.4385C-17.9647 28.1381 -29.0632 27.5973 -37.757 27.0566V27.0566ZM34.2905 51.2699L37.8975 72.1787C29.5737 72.7795 4.69465 74.6421 -4.18412 75.3631L-0.299657 53.4329L34.2905 51.2699V51.2699ZM5.24957 36.069L4.41718 49.5275L-2.61184 49.9481L-9.08594 49.167L-10.9357 39.3134L5.24957 36.069V36.069ZM38.2675 73.9812L39.5623 81.5516L-5.84889 85.1566L-4.46158 77.2257L38.2675 73.9812V73.9812ZM229.716 72.5392L224.537 84.3755L203.265 89.7229C200.12 84.0751 197.715 78.5475 196.328 75.2429L229.716 72.5392V72.5392ZM200.582 61.0634L216.86 59.8017L218.71 67.312L201.97 68.6338L200.582 61.0634V61.0634ZM281.509 138.089L261.809 135.085L271.613 115.138L288.538 117.181C287.335 120.846 284.283 129.798 281.509 138.089V138.089ZM291.312 117.481L312.122 120.005L284.931 136.467L291.312 117.481V117.481ZM105.598 121.627L137.784 119.644L141.298 128.717L102.731 129.438L105.598 121.627V121.627ZM105.598 105.885L135.009 112.554L136.396 116.099L108.003 117.842L105.598 105.885V105.885ZM252.098 135.085L246.826 145.78L223.889 139.892L229.993 129.918L252.098 135.085V135.085ZM231.011 128.176L236.282 119.524C244.144 122.468 251.82 125.052 256.26 126.493L252.93 133.343L231.011 128.176V128.176ZM216.028 142.896L205.207 136.948L218.155 124.991L224.999 128.176L216.028 142.896V142.896ZM214.918 144.638L214.363 145.48L187.264 146.982L173.669 135.205L187.172 129.317L214.918 144.638V144.638ZM184.49 147.703L161.553 156.295L156.281 142.836L171.264 136.287C173.854 138.45 181.808 145.299 184.49 147.703V147.703ZM171.911 133.824C170.709 132.862 168.582 131.06 167.01 129.798L178.293 124.511L184.952 128.176L171.911 133.824V133.824ZM169.599 134.845L155.634 140.913L153.691 135.987L164.697 130.819L169.599 134.845V134.845ZM154.524 162.723L129.922 157.977L148.42 146.982L154.524 162.723V162.723ZM126.778 157.376L94.9621 151.248L102.084 131.3L141.946 130.519L147.587 144.939L126.778 157.376V157.376ZM92.28 118.803L87.9331 94.8299L100.419 93.6282L105.321 118.022L92.28 118.803V118.803ZM92.0025 122.468L102.731 121.807L97.5517 136.167L86.9157 133.944L92.0025 122.468V122.468ZM96.9043 137.969L92.28 150.707L80.5341 148.424L86.0833 135.686L96.9043 137.969V137.969ZM93.8522 154.792L78.6844 181.529L67.4009 178.465L79.0543 151.908L93.8522 154.792V154.792ZM96.5344 155.333L111.055 158.157L104.766 170.294C100.604 169.453 92.9274 167.89 89.7828 167.29L96.5344 155.333V155.333ZM109.205 173.118C112.072 173.779 116.974 174.86 122.801 176.182L113.552 189.821L101.066 188.859L109.205 173.118V173.118ZM110.13 171.375L116.419 159.118L137.969 163.264L132.789 176.482L110.13 171.375V171.375ZM140.651 163.805L156.096 166.809L162.478 183.272L135.379 177.083L140.651 163.805V163.805ZM162.385 158.097L174.316 153.651L180.143 167.17L164.882 164.646L162.385 158.097V158.097ZM176.721 152.69L186.987 148.844L213.161 147.402L199.103 170.294L183.195 167.65L176.721 152.69V152.69ZM211.403 160.14L223.982 162.844L219.45 173.658L204.652 171.195L211.403 160.14V160.14ZM212.421 158.458L222.779 141.514L245.901 147.462L237.762 163.925L212.421 158.458V158.458ZM246.918 165.247L270.318 167.951L250.71 189.22L238.595 182.07L246.918 165.247V165.247ZM249.786 159.479L260.977 136.828L280.954 139.892C278.919 145.84 277.162 151.248 276.237 153.831L258.849 160.56L249.786 159.479V159.479ZM283.358 141.214L291.682 147.823L279.566 152.509L283.358 141.214V141.214ZM258.017 123.009C248.676 119.944 227.681 112.674 217.877 107.267C217.415 107.027 216.953 106.726 216.49 106.426L238.965 93.9286L264.214 110.511L258.017 123.009V123.009ZM224.074 97.4135L216.768 88.2809L225.461 86.1179L234.988 91.4052L224.074 97.4135V97.4135ZM221.947 98.6151L213.161 103.482C209.924 100.237 206.964 95.8513 204.282 91.3451L214.086 88.8817L221.947 98.6151V98.6151ZM214.27 110.031C218.617 112.434 224.907 115.138 231.473 117.661L226.109 126.433L200.212 114.237L212.143 108.649C212.883 109.13 213.531 109.61 214.27 110.031V110.031ZM215.935 123.91L203.08 135.746L180.698 123.369L197.808 115.378L215.935 123.91V123.91ZM181.808 118.382L176.813 107.628L189.206 103.782L194.386 112.554L181.808 118.382V118.382ZM175.981 105.825L172.004 97.2332L180.79 89.4825L188.189 102.04L175.981 105.825V105.825ZM176.998 120.605L152.212 132.201L143.24 109.19L170.062 105.825L176.998 120.605V120.605ZM142.685 107.387L132.142 80.2899L157.391 78.3071L169.322 104.083L142.685 107.387V107.387ZM134.269 110.451L105.228 103.842L103.101 93.3879L126.778 91.1048L134.269 110.451V110.451ZM87.5631 93.0274L85.8984 83.9549L122.801 81.0109L126.038 89.3023L87.5631 93.0274V93.0274ZM84.2336 78.0067L81.459 70.196L120.858 71.3976L122.338 75.0026L84.2336 78.0067V78.0067ZM86.2683 116.76L59.7245 96.9929L58.6146 86.1179L80.3491 84.3755L86.2683 116.76V116.76ZM57.5973 80.1096L55.6551 72.2989C63.1465 71.5779 71.5628 70.6766 75.8173 70.3161L78.7768 78.4273L57.5973 80.1096V80.1096ZM55.84 86.3582L56.8574 96.5122L45.1115 97.2332L45.4815 87.1393L55.84 86.3582V86.3582ZM57.7823 98.3147L85.8059 119.223L44.0942 121.807L45.019 99.1558C48.811 98.8554 55.5626 98.4349 57.7823 98.3147V98.3147ZM85.9908 122.828L62.9615 175.401L51.6781 171.315L75.6323 123.489L85.9908 122.828V122.828ZM65.9211 182.01L94.6846 189.821L91.4476 196.069L63.3315 187.718L65.9211 182.01V182.01ZM81.274 182.25L88.7654 168.912L103.841 171.976L96.4419 186.396L81.274 182.25V182.25ZM100.141 190.662L112.812 191.623L109.945 203.88L96.4419 197.872L100.141 190.662V190.662ZM115.772 191.082L125.39 176.783C132.974 178.525 141.668 180.508 149.252 182.19L140.836 210.189L130.107 212.832L112.442 204.962L115.772 191.082V191.082ZM158.316 209.768L163.033 220.763L143.148 226.171L134.084 215.776L158.316 209.768V209.768ZM143.98 209.468L152.027 182.851C156.559 183.873 160.535 184.774 163.403 185.435L170.247 202.979L143.98 209.468V209.468ZM166.455 168.611L197.53 173.779L189.484 180.688L172.374 183.872L166.455 168.611V168.611ZM200.49 174.259L229.808 179.126L197.068 189.941L191.889 181.589L200.49 174.259V174.259ZM222.132 174.139L226.571 163.444L236.93 165.667L231.936 175.761L222.132 174.139V174.139ZM237.67 184.053L263.936 199.494L261.994 201.897C248.676 200.215 237.115 198.773 230.826 197.992L237.67 184.053V184.053ZM252.838 190.542L273.277 168.371L287.52 170.053L265.231 197.872L252.838 190.542V190.542ZM290.387 170.354L294.919 170.895L286.133 204.962C279.011 204.06 271.797 203.159 264.861 202.318L290.387 170.354V170.354ZM291.96 193.305L314.897 196.85L312.122 208.206C305.185 207.365 297.139 206.343 288.815 205.322L291.96 193.305V193.305ZM295.474 209.828L311.105 211.751L304.168 230.497L291.312 228.814L295.474 209.828V209.828ZM313.787 212.111L328.4 213.914L323.035 232.96L306.943 230.857L313.787 212.111V212.111ZM314.896 208.567L317.671 197.151L332.931 197.932L329.417 210.369C325.995 209.948 321.001 209.287 314.896 208.567V208.567ZM318.134 195.348L319.983 187.718L335.429 189.1L333.394 196.129L318.134 195.348V195.348ZM320.446 185.915L323.313 174.199L339.128 176.062L335.984 187.297L320.446 185.915V185.915ZM315.359 195.048L292.422 191.503L297.694 171.195L320.538 173.839L315.359 195.048V195.048ZM267.266 161.522L295.289 150.707L316.006 167.23L267.266 161.522V161.522ZM297.694 149.746L334.134 135.686L342.273 142.115L305.74 156.114L297.694 149.746V149.746ZM294.087 146.862L284.468 139.231L315.174 120.605L330.527 132.802L294.087 146.862V146.862ZM316.376 107.327L294.549 105.465C295.197 102.761 295.844 100.237 296.214 98.9756L317.764 101.799L316.376 107.327V107.327ZM315.914 109.069L314.064 116.52L292.33 113.876C292.7 112.254 293.347 109.73 293.994 107.147L315.914 109.069V109.069ZM289.648 113.576L273.462 111.593L280.676 96.8727L293.439 98.555L289.648 113.576V113.576ZM266.156 106.546L243.311 91.5253L261.254 81.5516L276.144 86.4784L266.156 106.546V106.546ZM237.115 90.1434L227.311 84.736L232.768 72.2989L266.156 69.6552C266.618 70.7968 267.266 71.8783 268.19 72.8396L237.115 90.1434V90.1434ZM224.259 66.8914L219.82 48.446L238.78 46.5234L243.219 65.3894L224.259 66.8914V66.8914ZM208.814 105.765L196.79 111.413L182.825 87.8002L192.444 79.3285C195.588 86.5986 201.507 98.555 208.814 105.765V105.765ZM170.987 95.0702L162.94 77.8265L190.779 75.6034C190.964 76.024 191.149 76.5047 191.334 77.0454L170.987 95.0702V95.0702ZM166.547 71.4577L157.576 72.1787L142.316 56.2568L166.64 53.7934L166.547 71.4577V71.4577ZM154.524 72.419L131.217 74.2816L140.466 57.7588L154.524 72.419V72.419ZM126.778 71.5779L114.292 40.2147L140.928 46.3431L126.778 71.5779V71.5779ZM120.119 69.475L98.4766 68.8141L92.6499 47.6049L110.962 46.4633L120.119 69.475V69.475ZM95.6095 68.754L80.8116 68.3334L73.7825 48.8666L89.8753 47.8452L95.6095 68.754V68.754ZM75.1698 68.5137L55.2851 70.4964L53.3429 62.6856L72.4877 61.0033L75.1698 68.5137V68.5137ZM54.8227 80.35L45.1115 81.131L43.8167 73.5606C46.0364 73.3203 49.2734 73.0199 52.9729 72.6594L54.8227 80.35V80.35ZM44.0017 125.412L72.6727 123.67L58.0597 152.75L43.0768 148.724L44.0017 125.412V125.412ZM57.2273 154.492L49.0885 170.714L42.2444 169.993L42.9843 150.707L57.2273 154.492V154.492ZM48.1636 172.457L41.597 185.555L42.1519 171.796C44.0942 171.976 46.5913 172.277 48.1636 172.457V172.457ZM50.8457 173.058L62.2216 177.203L50.1058 204.841L40.9496 201.957L41.3196 191.924L50.8457 173.058V173.058ZM62.6841 189.46L90.6152 197.752L81.9214 214.695L55.2851 206.343L62.6841 189.46V189.46ZM95.517 199.674L126.963 213.674L99.8639 220.403L86.9157 216.317L95.517 199.674V199.674ZM99.0315 226.832L123.911 234.642L117.436 242.453L95.332 239.389L99.0315 226.832V226.832ZM106.8 222.566L131.402 216.437L140.558 226.832L129.83 229.716L106.8 222.566V222.566ZM163.865 222.566L167.472 231.037L148.235 235.604L133.159 230.917L163.865 222.566V222.566ZM160.998 209.107L171.541 206.464L179.865 227.973L170.062 230.316L160.998 209.107V209.107ZM173.021 185.615L189.484 182.551L205.299 207.906L183.38 212.352L173.021 185.615V185.615ZM198.178 191.623L229.253 181.349L212.698 214.875L198.178 191.623V191.623ZM229.068 201.537L255.612 204.841L250.525 223.467L220.19 219.502L229.068 201.537V201.537ZM255.057 227.793L285.023 231.758L282.711 242.333L253.762 232.6L255.057 227.793V227.793ZM255.982 224.188L261.069 205.502L289.925 209.107L285.763 228.093L255.982 224.188V224.188ZM290.48 232.419L322.018 236.565L318.873 247.56L287.983 243.595L290.48 232.419V232.419ZM325.625 257.294L339.128 258.435L334.966 272.374L321.648 271.293L325.625 257.294V257.294ZM326.087 255.491L332.284 233.561L346.065 235.123L339.591 256.633L326.087 255.491V255.491ZM333.301 230.016L337.556 215.116C341.903 215.716 349.117 216.678 357.626 217.819L352.631 232.179L333.301 230.016V230.016ZM338.481 211.571L343.66 193.185L376.955 196.189L372.516 216.197L338.481 211.571V211.571ZM342.643 170.294L320.168 167.65L307.405 157.556L343.937 143.557L349.394 147.883L342.643 170.294V170.294ZM354.573 149.565L377.695 153.23C376.4 157.496 373.071 168.371 371.499 173.658L348.192 170.955L354.573 149.565V149.565ZM350.782 143.196L323.313 121.386L356.053 125.412L350.782 143.196V143.196ZM319.521 117.241L324.978 94.9501L364.1 98.6151L357.163 121.867L319.521 117.241V117.241ZM340.515 92.727L343.752 77.8265L369.464 80.9508L365.209 95.0702L340.515 92.727V92.727ZM342.458 71.5178L331.914 70.2561L335.244 57.879L345.88 58.6L342.458 71.5178V71.5178ZM340.978 77.466C340.053 81.6117 338.481 89.0619 337.741 92.4266L325.902 91.285L329.694 76.024L340.978 77.466V77.466ZM326.365 69.5351L306.203 67.0717C306.203 66.8313 306.203 66.5309 306.203 66.2906C306.203 64.428 305.555 62.6255 304.538 61.0033L323.59 53.5531L328.77 60.8231L326.365 69.5351V69.5351ZM324.238 75.4232L318.226 99.9369L281.601 95.1303L289.463 79.2685C295.474 78.6075 300.653 76.2042 303.613 72.8396L324.238 75.4232V75.4232ZM285.856 73.4404C279.751 73.4404 274.757 70.196 274.757 66.2305C274.757 62.265 279.751 59.0206 285.856 59.0206C291.96 59.0206 296.954 62.265 296.954 66.2305C296.954 70.196 291.96 73.4404 285.856 73.4404V73.4404ZM279.751 78.908L276.884 84.736L263.474 80.2899L271.613 75.7837C273.832 77.1656 276.607 78.2471 279.751 78.908V78.908ZM265.878 63.5869L245.994 65.149L241.462 46.223L262.641 44.06L271.982 56.437C269.023 58.3597 266.803 60.8231 265.878 63.5869V63.5869ZM215.195 45.2016L213.808 37.9916L254.317 33.0048L260.144 40.6953L215.195 45.2016V45.2016ZM214.271 48.9868L216.398 57.9992L200.212 59.2609L198.64 50.5489L214.271 48.9868V48.9868ZM199.195 68.8741L169.414 71.2174V53.493L195.958 50.7892L199.195 68.8741V68.8741ZM170.339 49.7678L179.865 27.5372L191.611 30.4212L184.86 48.2658L170.339 49.7678V49.7678ZM167.38 50.0683L143.518 52.4716L160.258 22.6705L177.368 26.8763L167.38 50.0683V50.0683ZM141.853 44.6608L128.165 41.5365L132.974 30.301L147.68 34.2665L141.853 44.6608V44.6608ZM125.575 40.9357L113.46 38.1719L107.54 23.4516L130.477 29.6401L125.575 40.9357V40.9357ZM109.575 42.9785L71.3779 45.3217L69.6206 37.2706L105.413 32.6443L109.575 42.9785V42.9785ZM71.8403 59.2609L52.8804 60.9432L50.2908 50.3086L68.2333 49.167L71.8403 59.2609V59.2609ZM50.5683 62.986L52.5105 70.7968L43.5392 71.698L42.1519 63.707L50.5683 62.986V62.986ZM41.782 61.9046L39.9322 50.9094L47.5162 50.4288L50.1058 61.1235L41.782 61.9046V61.9046ZM39.9322 87.62L39.5623 97.5937C35.1229 97.834 26.1517 98.3748 22.5447 98.555L23.0996 88.8817L39.9322 87.62V87.62ZM16.8105 146.922L16.348 155.093C13.2035 155.033 5.71201 154.853 2.56744 154.792L3.12237 146.321L16.8105 146.922V146.922ZM4.13972 142.656L17.9203 128.176L16.9954 143.257L4.13972 142.656V142.656ZM16.1631 156.895L15.6081 166.629C11.0763 166.028 6.26693 165.427 1.82755 164.886L2.38247 156.595L16.1631 156.895V156.895ZM15.4232 168.431L13.111 180.568L-1.50199 178.105L1.4576 166.629L15.4232 168.431V168.431ZM14.5908 187.477L22.7296 188.799L21.8973 196.009L13.4809 193.366L14.5908 187.477V187.477ZM14.9607 185.615L18.1053 168.732L24.9493 169.573L23.0071 186.877L14.9607 185.615V185.615ZM27.7239 169.993L36.6027 171.135L35.4929 200.215L24.6719 196.85L27.7239 169.993V169.993ZM18.3827 166.989L18.9377 157.016C22.5447 157.136 32.2558 157.496 37.0651 157.676L36.6027 169.332C32.9032 168.852 26.0592 167.951 18.3827 166.989V166.989ZM19.1226 155.153L19.5851 147.042L37.5276 147.883L37.2501 155.874L19.1226 155.153V155.153ZM19.7701 143.377L20.8799 125.592L38.4525 124.751L37.7126 144.158L19.7701 143.377V143.377ZM20.9724 123.79L21.4348 116.64L38.7299 116.94L38.4525 122.949L20.9724 123.79V123.79ZM21.6198 113.035L22.3597 100.418L39.3773 99.4563L38.8224 113.335L21.6198 113.035V113.035ZM-5.10899 91.1648L20.2325 89.1821L19.6776 98.6752L-6.21884 98.4949L-5.10899 91.1648V91.1648ZM19.5851 100.478L18.8452 112.975L-8.34604 112.494L-6.4963 100.297L19.5851 100.478V100.478ZM18.6602 116.64L18.1978 124.511L9.319 133.884L-9.27091 118.623L-8.90096 116.159L18.6602 116.64V116.64ZM7.65423 135.506L0.902671 142.536L-12.9704 141.875L-9.73335 121.206L7.65423 135.506V135.506ZM0.347751 146.141L-0.94707 164.466C-7.05122 163.685 -12.508 162.964 -16.0225 162.543L-13.4328 145.48L0.347751 146.141V146.141ZM-17.5948 111.653L-28.7857 110.632L-23.2365 89.843L-14.3577 90.9245L-17.5948 111.653V111.653ZM-16.3924 164.346L-1.31702 166.268L-6.68127 186.997L-19.352 183.031L-16.3924 164.346V164.346ZM-1.96443 179.907L12.741 182.37L10.7988 192.464L-3.99915 187.838L-1.96443 179.907V179.907ZM12.1861 199.674L42.3369 209.107L40.9496 212.232L-0.947067 218.72L12.1861 199.674V199.674ZM44.9265 209.888L59.7245 214.515L53.2504 228.995L36.9726 228.093L44.9265 209.888V209.888ZM64.8113 216.137L77.5745 220.102L68.2333 245.457L52.1405 244.376L64.8113 216.137V216.137ZM87.0082 248.582L85.6209 253.208L48.4411 252.547L51.3082 246.178L87.0082 248.582V248.582ZM71.0079 245.638L80.1642 220.944L93.8522 225.269L87.4706 246.839L71.0079 245.638V245.638ZM94.8696 241.191L134.454 246.719L133.067 254.049L91.3551 253.268L94.8696 241.191V241.191ZM120.304 242.874L126.5 235.423L140.281 239.749L135.379 244.977L120.304 242.874V242.874ZM137.321 246.298L142.685 240.531L160.35 246.058L158.038 254.53L135.749 254.109L137.321 246.298V246.298ZM194.756 245.457C200.86 245.457 205.854 248.702 205.854 252.667C205.854 256.633 200.86 259.877 194.756 259.877C188.652 259.877 183.657 256.633 183.657 252.667C183.75 248.702 188.652 245.457 194.756 245.457V245.457ZM200.305 239.93C198.548 239.629 196.698 239.449 194.756 239.449C194.478 239.449 194.201 239.449 193.923 239.449L184.12 214.094L206.409 209.588L211.403 217.639L200.305 239.93V239.93ZM218.525 222.986L249.601 227.072L249.138 228.874L211.403 244.977C210.571 244.256 209.739 243.595 208.721 242.994L218.525 222.986V222.986ZM248.398 231.278L242.109 254.289L215.01 251.285C214.733 249.543 213.993 247.921 212.791 246.479L248.398 231.278V231.278ZM255.89 259.517L253.763 265.525L228.883 263.182L233.693 257.053L255.89 259.517V259.517ZM250.156 245.758L253.208 234.462L282.249 244.196L281.046 249.543L250.156 245.758V245.758ZM314.712 262.341L284.653 259.036L287.613 245.397L318.319 249.303L314.712 262.341V262.341ZM328.955 292.322L316.191 290.7L321.186 273.035L334.411 274.117L328.955 292.322V292.322ZM347.267 294.665L334.411 293.043L342.55 265.885L354.573 267.628L347.267 294.665V294.665ZM355.036 265.765L343.105 264.023L351.614 235.664L362.897 236.926L355.036 265.765V265.765ZM389.996 281.928L371.776 282.228L371.314 274.417L386.112 263.843C386.944 267.988 389.071 277.782 389.996 281.928V281.928ZM385.557 261.559L371.129 271.894L369.001 237.707L379.545 238.848L385.557 261.559V261.559ZM394.343 222.746L391.013 236.385L355.406 232.419L360.4 218.12C370.851 219.622 382.967 221.244 394.343 222.746V222.746ZM377.51 194.387L344.307 191.383L348.377 177.143L380.562 180.868L377.51 194.387V194.387ZM388.424 175.641L374.273 174.019L377.14 164.466L391.013 166.268L388.424 175.641V175.641ZM402.389 177.263L391.198 175.942L393.881 166.629L404.517 168.011L402.389 177.263V177.263ZM406.736 157.737L404.794 166.148L377.603 162.603L380.377 153.591L406.736 157.737V157.737ZM378.805 149.625L355.683 145.96L361.695 126.073L384.909 128.897L378.805 149.625V149.625ZM392.956 126.193L362.712 122.468L367.799 105.645L397.765 109.55L392.956 126.193V126.193ZM408.401 11.1947L405.164 25.7347L392.678 25.6146L391.568 11.8556L408.401 11.1947V11.1947ZM392.493 29.2195L404.332 29.3397L397.95 58.0593H388.424L392.493 29.2195V29.2195ZM388.146 59.9218H397.58L393.603 77.7664L385.742 76.8051L388.146 59.9218V59.9218ZM383.06 76.4446L377.788 75.7837L374.828 29.0393L389.719 29.2195L383.06 76.4446V76.4446ZM388.701 11.9758L389.811 25.6146L374.643 25.4343L373.811 12.5766L388.701 11.9758V11.9758ZM374.921 81.6117L404.517 85.2167L398.135 107.808L368.262 103.902L374.921 81.6117V81.6117ZM372.146 75.1228L345.232 71.8182C346.25 67.8527 348.099 61.1235 348.747 58.7803L371.314 60.3424L372.146 75.1228V75.1228ZM371.129 58.4798L335.706 56.0164L338.388 46.223L370.389 46.0427L371.129 58.4798V58.4798ZM347.082 13.598L368.169 12.7569L369.001 26.2755L343.66 26.1553L347.082 13.598V13.598ZM343.29 27.9578L369.279 28.078L370.296 44.1801L338.943 44.3604L343.29 27.9578V27.9578ZM310.55 7.89018L341.533 13.2375L338.203 25.6146L307.22 19.6664L310.55 7.89018V7.89018ZM337.741 27.4171L330.434 54.5745L306.85 21.4689L337.741 27.4171V27.4171ZM305 27.5372L322.388 51.8707L303.243 59.3811C301.671 57.7588 299.636 56.3169 297.139 55.2354L305 27.5372V27.5372ZM299.544 13.2976L288.26 53.1325C287.613 53.0724 286.965 53.0724 286.225 53.0724L279.104 15.5808L299.544 13.2976V13.2976ZM273.555 16.1816L280.676 53.493C280.491 53.493 280.399 53.5531 280.214 53.5531L253.578 18.3446L273.555 16.1816V16.1816ZM234.34 6.50827L253.115 31.3224L234.618 33.6056L221.762 8.79142L234.34 6.50827V6.50827ZM219.08 9.27208C221.762 14.3791 229.716 29.8805 231.843 33.9661L213.531 36.1891L208.629 11.1346L219.08 9.27208V9.27208ZM209.739 45.7423L187.912 47.9654L194.293 31.0821L207.519 34.3266L209.739 45.7423V45.7423ZM207.057 32.2838L180.79 25.7948L186.987 16.9627L204.929 21.2285L207.057 32.2838V32.2838ZM190.964 8.73133L202.987 11.1346L204.559 19.1857L188.004 15.2804L190.964 8.73133V8.73133ZM170.339 4.58563L188.374 8.25067L185.045 15.5808L178.293 25.194L161.183 20.9882L170.339 4.58563V4.58563ZM146.94 1.46132L163.588 5.96753L159.981 12.3363L142.685 8.43092L146.94 1.46132V1.46132ZM140.928 11.9157L158.038 15.761L148.605 32.5241L133.714 28.4986L140.928 11.9157V11.9157ZM116.049 6.32803L138.339 11.3149L131.217 27.8376L106.708 21.2285L104.581 16.0013C108.743 13.0573 112.535 9.81282 116.049 6.32803V6.32803ZM84.696 9.99307L97.8292 4.94612L100.049 13.7182C97.5517 15.4606 94.9621 16.9627 92.28 18.3446L84.696 9.99307V9.99307ZM91.91 23.031C94.6846 21.8294 97.4592 20.4475 100.049 18.9454L104.858 30.9619L69.3432 35.5282L67.9558 29.0994C77.297 27.6574 85.5284 25.6747 91.91 23.031V23.031ZM65.0887 29.4599L68.5108 45.502L31.3309 47.7851L29.4812 32.1035C41.967 31.8031 54.1753 30.9619 65.0887 29.4599V29.4599ZM48.2561 12.9972L49.9209 27.4171C38.8224 28.3183 26.8916 28.6788 15.1457 28.6788L14.4983 10.2935L48.2561 12.9972V12.9972ZM26.7991 32.2237L28.6488 48.0254L7.1918 49.3473L8.30164 32.4039C14.3133 32.4039 20.6024 32.3438 26.7991 32.2237V32.2237ZM0.162774 9.212L8.76408 9.87291L9.04154 17.3232L-1.13205 16.482C-0.854584 14.8598 -0.207174 11.375 0.162774 9.212V9.212ZM9.13403 19.1256L9.50398 28.6788C5.24957 28.6788 1.08765 28.6187 -2.98179 28.4986L-1.40951 18.2845L9.13403 19.1256V19.1256ZM-46.7282 5.48687L-2.61184 8.97167L-3.90666 16.2417L-48.3005 12.6367L-46.7282 5.48687V5.48687ZM-48.6704 14.4392L-37.387 15.3404L-40.5316 26.8763C-44.9709 26.5759 -48.5779 26.3356 -51.2601 26.1553L-48.6704 14.4392V14.4392ZM-31.3753 46.5234L-55.1445 43.6995L-52.0925 29.7603C-47.2831 30.1208 -39.2367 30.7216 -29.1556 31.2023L-31.3753 46.5234V46.5234ZM-28.0458 42.7382L-13.8028 39.8542L-12.0455 48.8065L-28.6007 46.8238L-28.0458 42.7382V42.7382ZM-28.2308 50.609L-5.94137 53.2526L-11.5831 85.1566L-17.4098 84.4356L-28.2308 50.609V50.609ZM-44.0461 67.3721L-26.4735 64.9688L-20.3694 84.0751L-41.179 81.5516L-44.0461 67.3721V67.3721ZM-46.9132 129.377L-37.572 88.1006L-26.0111 89.4825L-37.0171 130.519L-46.9132 129.377V129.377ZM-34.2424 130.88L-29.2481 112.374L-17.7797 113.395L-20.7393 132.502L-34.2424 130.88V130.88ZM-20.5543 189.4L7.1918 198.052L-11.5831 225.39L-28.2308 224.488L-20.5543 189.4V189.4ZM-29.0632 228.093L14.7757 230.497L14.0358 238.908L-31.9303 241.252L-29.0632 228.093V228.093ZM13.8509 240.771L12.8335 251.826L1.36511 251.586V241.372L13.8509 240.771V240.771ZM-32.3927 243.174L-1.40951 241.612V251.646L-34.15 251.045L-32.3927 243.174V243.174ZM-15.8375 283.97L-40.9015 281.807L-37.1095 264.684L-13.3403 266.787L-15.8375 283.97V283.97ZM-36.7396 262.881L-35.4448 257.053L-12.0455 257.474L-13.0629 264.984L-36.7396 262.881V262.881ZM-4.55407 284.932L-13.0629 284.211L-10.6582 267.027L-1.87194 267.808L-4.55407 284.932V284.932ZM-1.59448 266.006L-10.3808 265.225L-9.27091 257.474L-0.29966 257.654L-1.59448 266.006V266.006ZM10.8913 286.314L0.995159 285.472L3.67729 268.229L12.741 268.589L10.8913 286.314V286.314ZM3.95475 266.366L5.34206 257.774L41.782 258.435L42.7993 267.808L3.95475 266.366V266.366ZM13.6659 286.554L15.6081 268.649L43.0768 269.671L45.2965 289.318L13.6659 286.554V286.554ZM42.7069 252.427L18.4752 252.006L19.4001 241.131L45.7589 245.517L42.7069 252.427V252.427ZM32.6258 241.432L35.5854 231.698L51.6781 232.6L46.6838 243.775L32.6258 241.432V241.432ZM47.3312 258.555L85.4359 259.276L87.1007 265.645L48.4411 267.808L47.3312 258.555V258.555ZM48.626 269.55L87.5631 267.388L89.9678 276.64L49.7359 279.464L48.626 269.55V269.55ZM51.5856 295.927L50.1058 283.129L90.8002 280.245L93.5748 291.24L51.5856 295.927V295.927ZM93.9447 270.271L91.1701 259.336L140.466 260.238C139.356 263.001 137.599 267.267 135.102 272.314L93.9447 270.271V270.271ZM150.269 293.463L131.864 288.897C132.974 287.095 134.084 285.292 135.102 283.55L154.431 286.494L150.269 293.463V293.463ZM137.044 280.125C141.761 271.533 144.72 264.203 146.107 260.358L157.668 260.598L168.952 273.155L157.206 283.189L137.044 280.125V280.125ZM176.166 286.073L160.258 283.67L171.171 274.357L181.253 277.061L176.166 286.073V286.073ZM182.27 275.318L172.929 272.795L183.565 263.722C184.952 264.323 186.339 264.744 187.912 265.104L182.27 275.318V275.318ZM188.004 275.619L193.461 265.825C193.923 265.825 194.293 265.825 194.756 265.825C196.975 265.825 199.195 265.585 201.23 265.164L207.796 273.876L188.004 275.619V275.619ZM195.126 290.519L197.53 276.64L209.184 275.619L217.415 286.554L195.126 290.519V290.519ZM217.785 273.396L209.184 261.98C212.051 260.117 214.086 257.654 214.825 254.95L230.733 256.693L217.785 273.396V273.396ZM234.063 294.905L229.161 288.477L245.439 285.472L248.121 292.081L234.063 294.905V294.905ZM272.815 287.095L250.803 291.541L248.213 284.932L274.387 280.065L272.815 287.095V287.095ZM275.22 276.16L226.664 285.172L219.357 275.439L227.589 264.924L276.699 269.55L275.22 276.16V276.16ZM276.144 297.429L280.029 279.644L293.717 280.846L290.48 294.725L276.144 297.429V297.429ZM306.388 291.721L293.532 294.124L296.584 281.086L309.07 282.168L306.388 291.721V291.721Z" fill="#C2D1D9"/>
</svg>
