<svg xmlns="http://www.w3.org/2000/svg" version="1.1" xmlns:xlink="http://www.w3.org/1999/xlink" width="1000" height="1000"><style>
    #light-icon {
      display: inline;
    }
    #dark-icon {
      display: none;
    }

    @media (prefers-color-scheme: dark) {
      #light-icon {
        display: none;
      }
      #dark-icon {
        display: inline;
      }
    }
  </style><g id="light-icon"><svg xmlns="http://www.w3.org/2000/svg" version="1.1" xmlns:xlink="http://www.w3.org/1999/xlink" width="1000" height="1000"><g clip-path="url(#SvgjsClipPath1065)"><rect width="1000" height="1000" fill="#00263e"></rect><g transform="matrix(7.978117164349214,0,0,7.978117164349214,150,174.33325735126505)"><svg xmlns="http://www.w3.org/2000/svg" version="1.1" xmlns:xlink="http://www.w3.org/1999/xlink" width="87.74" height="81.64"><svg id="Layer_2" xmlns="http://www.w3.org/2000/svg" viewBox="0 0 87.74 81.64"><defs><style>.cls-1{fill:#fff;}.cls-2{fill:#7ba0c4;}</style><clipPath id="SvgjsClipPath1065"><rect width="1000" height="1000" x="0" y="0" rx="0" ry="0"></rect></clipPath></defs><g id="Layer_1-2"><g><g><polygon class="cls-1" points="20.84 31.53 11.6 22.29 2.36 31.53 0 29.16 11.6 17.55 23.21 29.16 20.84 31.53"></polygon><polygon class="cls-1" points="20.84 45.07 11.6 35.83 2.36 45.07 0 42.7 11.6 31.1 23.21 42.7 20.84 45.07"></polygon><polygon class="cls-1" points="20.84 58.61 11.6 49.37 2.36 58.61 0 56.25 11.6 44.64 23.21 56.25 20.84 58.61"></polygon><rect class="cls-1" x="9.93" y="19.92" width="3.34" height="50.66"></rect></g><g><polygon class="cls-1" points="85.37 31.53 76.13 22.29 66.89 31.53 64.53 29.16 76.13 17.55 87.74 29.16 85.37 31.53"></polygon><polygon class="cls-1" points="85.37 45.07 76.13 35.83 66.89 45.07 64.53 42.7 76.13 31.1 87.74 42.7 85.37 45.07"></polygon><polygon class="cls-1" points="85.37 58.61 76.13 49.37 66.89 58.61 64.53 56.25 76.13 44.64 87.74 56.25 85.37 58.61"></polygon><rect class="cls-1" x="74.46" y="19.92" width="3.34" height="50.66"></rect></g><g><polygon class="cls-1" points="56.66 17.54 43.85 4.73 31.05 17.54 28.68 15.17 43.85 0 59.02 15.17 56.66 17.54"></polygon><polygon class="cls-1" points="56.66 35.01 43.85 22.21 31.05 35.01 28.68 32.64 43.85 17.47 59.02 32.64 56.66 35.01"></polygon><polygon class="cls-1" points="56.42 52.12 43.85 39.55 31.28 52.12 28.92 49.75 43.85 34.82 58.79 49.75 56.42 52.12"></polygon><rect class="cls-1" x="42.18" y="2.28" width="3.34" height="61.85"></rect></g><g><polygon class="cls-2" points="43.87 68.09 20.85 45.07 23.21 42.71 43.87 63.36 64.53 42.7 66.89 45.07 43.87 68.09"></polygon><polygon class="cls-2" points="43.87 81.64 20.84 58.61 23.21 56.25 43.87 76.91 64.53 56.25 66.89 58.61 43.87 81.64"></polygon></g></g></g></svg></svg></g></g></svg></g><g id="dark-icon"><svg xmlns="http://www.w3.org/2000/svg" version="1.1" xmlns:xlink="http://www.w3.org/1999/xlink" width="1000" height="1000"><g><g transform="matrix(11.397310234784591,0,0,11.397310234784591,0,34.76179621609299)"><svg xmlns="http://www.w3.org/2000/svg" version="1.1" xmlns:xlink="http://www.w3.org/1999/xlink" width="87.74" height="81.64"><svg id="Layer_2" xmlns="http://www.w3.org/2000/svg" viewBox="0 0 87.74 81.64"><defs><style>.cls-1{fill:#fff;}.cls-2{fill:#7ba0c4;}</style></defs><g id="Layer_1-2"><g><g><polygon class="cls-1" points="20.84 31.53 11.6 22.29 2.36 31.53 0 29.16 11.6 17.55 23.21 29.16 20.84 31.53"></polygon><polygon class="cls-1" points="20.84 45.07 11.6 35.83 2.36 45.07 0 42.7 11.6 31.1 23.21 42.7 20.84 45.07"></polygon><polygon class="cls-1" points="20.84 58.61 11.6 49.37 2.36 58.61 0 56.25 11.6 44.64 23.21 56.25 20.84 58.61"></polygon><rect class="cls-1" x="9.93" y="19.92" width="3.34" height="50.66"></rect></g><g><polygon class="cls-1" points="85.37 31.53 76.13 22.29 66.89 31.53 64.53 29.16 76.13 17.55 87.74 29.16 85.37 31.53"></polygon><polygon class="cls-1" points="85.37 45.07 76.13 35.83 66.89 45.07 64.53 42.7 76.13 31.1 87.74 42.7 85.37 45.07"></polygon><polygon class="cls-1" points="85.37 58.61 76.13 49.37 66.89 58.61 64.53 56.25 76.13 44.64 87.74 56.25 85.37 58.61"></polygon><rect class="cls-1" x="74.46" y="19.92" width="3.34" height="50.66"></rect></g><g><polygon class="cls-1" points="56.66 17.54 43.85 4.73 31.05 17.54 28.68 15.17 43.85 0 59.02 15.17 56.66 17.54"></polygon><polygon class="cls-1" points="56.66 35.01 43.85 22.21 31.05 35.01 28.68 32.64 43.85 17.47 59.02 32.64 56.66 35.01"></polygon><polygon class="cls-1" points="56.42 52.12 43.85 39.55 31.28 52.12 28.92 49.75 43.85 34.82 58.79 49.75 56.42 52.12"></polygon><rect class="cls-1" x="42.18" y="2.28" width="3.34" height="61.85"></rect></g><g><polygon class="cls-2" points="43.87 68.09 20.85 45.07 23.21 42.71 43.87 63.36 64.53 42.7 66.89 45.07 43.87 68.09"></polygon><polygon class="cls-2" points="43.87 81.64 20.84 58.61 23.21 56.25 43.87 76.91 64.53 56.25 66.89 58.61 43.87 81.64"></polygon></g></g></g></svg></svg></g></g></svg></g></svg>